<?xml version="1.0" encoding="utf-8"?>
<svg width="224" height="82" viewBox="0 0 103.559 82" fill="none" xmlns="http://www.w3.org/2000/svg">
  <defs>
    <view id="view-1" viewBox="103.395 25.648 123.166 28.96">
      <title>View 1</title>
    </view>
  </defs>
  <path d="M 242.71 53.735 C 240.964 53.735 239.393 53.435 237.996 52.837 C 236.599 52.213 235.502 51.34 234.703 50.218 C 233.905 49.095 233.506 47.785 233.506 46.289 L 238.071 46.289 C 238.171 47.411 238.607 48.334 239.38 49.058 C 240.179 49.781 241.289 50.143 242.71 50.143 C 244.182 50.143 245.33 49.793 246.153 49.095 C 246.976 48.372 247.387 47.449 247.387 46.326 C 247.387 45.453 247.126 44.742 246.602 44.194 C 246.103 43.645 245.467 43.221 244.694 42.921 C 243.945 42.622 242.898 42.298 241.551 41.949 C 239.854 41.5 238.47 41.051 237.397 40.602 C 236.35 40.128 235.452 39.404 234.703 38.431 C 233.955 37.459 233.581 36.162 233.581 34.54 C 233.581 33.043 233.955 31.734 234.703 30.611 C 235.452 29.489 236.499 28.628 237.846 28.03 C 239.193 27.431 240.752 27.132 242.523 27.132 C 245.043 27.132 247.101 27.768 248.697 29.04 C 250.318 30.287 251.216 32.008 251.391 34.203 L 246.677 34.203 C 246.602 33.256 246.153 32.445 245.33 31.771 C 244.506 31.098 243.421 30.761 242.074 30.761 C 240.852 30.761 239.854 31.073 239.081 31.697 C 238.308 32.32 237.921 33.218 237.921 34.39 C 237.921 35.189 238.158 35.85 238.632 36.374 C 239.131 36.872 239.755 37.272 240.503 37.571 C 241.251 37.87 242.274 38.194 243.571 38.544 C 245.292 39.018 246.689 39.492 247.762 39.965 C 248.859 40.439 249.782 41.175 250.53 42.173 C 251.304 43.146 251.69 44.455 251.69 46.102 C 251.69 47.424 251.329 48.671 250.605 49.843 C 249.907 51.016 248.872 51.964 247.5 52.687 C 246.153 53.385 244.556 53.735 242.71 53.735 Z M 261.7 36.336 L 261.7 47.748 C 261.7 48.521 261.874 49.083 262.224 49.432 C 262.598 49.756 263.221 49.918 264.094 49.918 L 266.713 49.918 L 266.713 53.473 L 263.346 53.473 C 261.425 53.473 259.954 53.024 258.931 52.126 C 257.908 51.228 257.397 49.769 257.397 47.748 L 257.397 36.336 L 254.965 36.336 L 254.965 32.856 L 257.397 32.856 L 257.397 27.73 L 261.7 27.73 L 261.7 32.856 L 266.713 32.856 L 266.713 36.336 L 261.7 36.336 Z M 279.587 53.809 C 277.642 53.809 275.883 53.373 274.312 52.5 C 272.74 51.602 271.505 50.355 270.607 48.758 C 269.709 47.137 269.26 45.266 269.26 43.146 C 269.26 41.051 269.722 39.192 270.645 37.571 C 271.568 35.949 272.827 34.702 274.424 33.829 C 276.02 32.956 277.804 32.52 279.774 32.52 C 281.745 32.52 283.528 32.956 285.125 33.829 C 286.721 34.702 287.981 35.949 288.904 37.571 C 289.827 39.192 290.288 41.051 290.288 43.146 C 290.288 45.241 289.814 47.099 288.866 48.721 C 287.919 50.342 286.622 51.602 284.975 52.5 C 283.354 53.373 281.558 53.809 279.587 53.809 Z M 279.587 50.105 C 280.685 50.105 281.708 49.843 282.655 49.32 C 283.628 48.796 284.414 48.01 285.013 46.962 C 285.611 45.915 285.911 44.642 285.911 43.146 C 285.911 41.649 285.624 40.39 285.05 39.367 C 284.476 38.319 283.716 37.533 282.768 37.01 C 281.82 36.486 280.797 36.224 279.7 36.224 C 278.602 36.224 277.579 36.486 276.631 37.01 C 275.708 37.533 274.973 38.319 274.424 39.367 C 273.875 40.39 273.601 41.649 273.601 43.146 C 273.601 45.366 274.162 47.087 275.284 48.309 C 276.432 49.507 277.866 50.105 279.587 50.105 Z M 298.77 35.85 C 299.394 34.802 300.217 33.991 301.24 33.418 C 302.287 32.819 303.522 32.52 304.944 32.52 L 304.944 36.935 L 303.859 36.935 C 302.188 36.935 300.916 37.359 300.043 38.207 C 299.194 39.055 298.77 40.527 298.77 42.622 L 298.77 53.473 L 294.505 53.473 L 294.505 32.856 L 298.77 32.856 L 298.77 35.85 Z M 327.76 42.659 C 327.76 43.433 327.71 44.131 327.61 44.755 L 311.858 44.755 C 311.983 46.401 312.594 47.723 313.692 48.721 C 314.789 49.719 316.136 50.218 317.732 50.218 C 320.027 50.218 321.649 49.257 322.597 47.336 L 327.199 47.336 C 326.575 49.232 325.44 50.791 323.794 52.013 C 322.173 53.211 320.152 53.809 317.732 53.809 C 315.762 53.809 313.991 53.373 312.419 52.5 C 310.873 51.602 309.651 50.355 308.753 48.758 C 307.88 47.137 307.443 45.266 307.443 43.146 C 307.443 41.026 307.867 39.167 308.715 37.571 C 309.588 35.949 310.798 34.702 312.345 33.829 C 313.916 32.956 315.712 32.52 317.732 32.52 C 319.678 32.52 321.412 32.944 322.933 33.792 C 324.455 34.64 325.64 35.837 326.488 37.384 C 327.336 38.905 327.76 40.664 327.76 42.659 Z M 323.307 41.312 C 323.283 39.741 322.721 38.481 321.624 37.533 C 320.526 36.586 319.167 36.112 317.545 36.112 C 316.074 36.112 314.814 36.586 313.766 37.533 C 312.719 38.456 312.095 39.716 311.896 41.312 L 323.307 41.312 Z M 336.223 27.468 L 336.223 53.473 L 331.958 53.473 L 331.958 27.468 L 336.223 27.468 Z M 346.8 36.336 L 346.8 47.748 C 346.8 48.521 346.974 49.083 347.323 49.432 C 347.698 49.756 348.321 49.918 349.194 49.918 L 351.813 49.918 L 351.813 53.473 L 348.446 53.473 C 346.525 53.473 345.053 53.024 344.031 52.126 C 343.008 51.228 342.497 49.769 342.497 47.748 L 342.497 36.336 L 340.065 36.336 L 340.065 32.856 L 342.497 32.856 L 342.497 27.73 L 346.8 27.73 L 346.8 32.856 L 351.813 32.856 L 351.813 36.336 L 346.8 36.336 Z" fill="white"/>
  <rect opacity="0.2" width="74.8323" height="74.8323" rx="37.4161" fill="white"/>
  <rect x="32.7383" y="31.1797" width="49.8882" height="49.8882" rx="24.9441" fill="white"/>
  <text style="fill: rgb(255, 255, 255); font-family: Arial, sans-serif; font-size: 28px; white-space: pre; transform-box: fill-box; transform-origin: 50% 65.7609%;" x="104.418" y="48.817">Storeezz</text>
  <text style="white-space: pre; fill: rgb(51, 51, 51); font-family: Arial, sans-serif; font-size: 28px;" x="216.851" y="6.398">Enter your text here</text>
</svg>